<svg xmlns="http://www.w3.org/2000/svg" width="1706.667" height="1642.667" version="1.0" viewBox="0 0 1280 1232"><path d="m735.6 4-6.9 3.8 3.4.6c1.9.3 6.2.7 9.6 1 25.4 2.2 62.3 15.1 96.5 33.7 34.5 18.8 62.9 38 130.5 88.1 19.9 14.8 38.5 27.9 41.5 29.3 10.7 4.9 22 5.2 32.9.9 4.6-1.9 15.9-8.5 15.8-9.4 0-.7-12.9-10.8-30.4-24.1-44.1-33.3-82.9-57.5-127-79C860.3 28.8 823.3 15.6 783.9 7 771.2 4.2 746-.1 743.5.1c-.5 0-4.1 1.8-7.9 3.9zM447.8 16.5C387 41.3 331.5 74.4 283 114.8c-16.8 14-50 47.6-62.2 63-11.2 14-24 32.6-28.4 41-3.2 6.1-2.7 10 1.8 13.7 5.8 4.9 8.7 3.7 36.3-14.7 8.7-5.8 11.8-8.4 14.6-12.8 16.8-25.3 21.1-31.7 27.7-40.5 49-65.1 115.3-116.8 184.9-144.1 6.8-2.7 12.5-5.4 12.7-6.1.7-1.8-2.1-4.3-4.7-4.3-1.2.1-9.3 2.9-17.9 6.5zM409.2 127c-19.2 2.7-43.4 12.9-66 27.7-9.8 6.5-29 21.9-40.2 32.2l-7.4 6.9 3.9 1.6 3.8 1.6-11.4 11.8c-32.9 33.6-55.7 64.1-76.1 101.7-27.3 50.2-45.3 110.7-51.3 172.7-.9 9-1.9 17.4-2.3 18.6-.6 1.9-8.2 6.2-38.7 21.7-20.9 10.7-38.8 20.4-39.7 21.6-3.6 4.4-.9 8.7 5.9 9.6 3.3.4 8-1.5 37.7-15.6 18.7-8.9 34.2-16.1 34.6-16.1.3 0 1.4 6.6 2.4 14.7 7.2 60.2 22.8 106.6 49.1 146.3 24.2 36.4 51.5 59.7 82.3 70.1 26.6 9 59.4 7.7 92.6-3.7 63.2-21.8 108.7-73.8 141.7-161.9 10.4-27.7 21.9-69 28.1-100.8 1.7-8.8 2.6-11.7 3.8-11.7.8 0 6.4 1.4 12.4 3 6.1 1.6 11.2 2.7 11.5 2.5.9-1-1.8-12.7-4.2-17.8-2.9-6.2-8.5-13.2-14.8-18.3l-4.6-3.7-.6-33.1c-.7-41.5-3.4-64.7-11.3-96.8-11-45-32.1-90.6-53.7-116-11.4-13.4-31.3-26.1-47.2-30.2-9.5-2.5-27-4-36-3.1l-8 .8 10.5 2.3c26.2 5.9 45.4 15.2 61.2 29.4 11.8 10.5 27.2 32 36.7 50.8 21.1 42.1 31 98.7 28.1 162.2-.5 11.3-1 21.8-1 23.5-.1 5.3-.7 5.6-10 3.9-14.4-2.5-36.8-5.3-53.5-6.5-19.9-1.4-67.7-.6-86.7 1.5-65.8 7.4-128.7 25.8-190.6 55.7l-16.4 7.9.7-6.3c.3-3.4 2-15.6 3.6-27.1 17.9-126.5 62.1-215.1 134.2-268.9 14.6-10.9 30.4-19.2 48.2-25.4 25.4-8.8 59.6-9.7 86.2-2.3 3.7 1 6.9 1.7 7.1 1.5.6-.5-12.6-7.7-20.7-11.1-11.3-4.9-18.4-6.5-31.1-7.1-18.7-.9-35.5 3.6-59 15.9-6.3 3.3-11.3 5.8-11 5.5 1.7-1.7 14.2-10.5 21.2-14.8 25.8-16.2 47.4-21 66.1-14.6 24.4 8.4 55.9 30.1 84.6 58.4 10.3 10.2 10.4 10.3 15.3 10.3 7.2 0 18.5-2.8 21.5-5.4 3.6-3.1 2.6-5.1-6-12.8-48.6-43.7-100.4-67.7-135.5-62.8zm46.7 337.1c1.6 4.5 1.6 4.6-3.4 5.2-6.3.9-12.1 4.1-14.8 8.2-1.2 1.9-2.4 3.5-2.7 3.5-.3 0-2-4.3-3.7-9.4l-3.1-9.5 4.2-.4c2.2-.2 8.2-.4 13.3-.5l9.1-.2 1.1 3.1zm-46.2 4.1c2.4 4.7 2.8 6.4 2.8 14.3 0 7.8-.4 9.7-2.7 14.1-1.5 2.8-4.8 7-7.3 9.2-8.3 7.3-17.9 8.9-31.3 5.2-19.6-5.5-33.2-17.9-33.2-30.4 0-4.2 2.7-9.5 5.2-10.5 4.7-1.8 45.2-6.7 57-7l6.8-.1 2.7 5.2zm122.6.7c2.3.1 4 .7 4.3 1.5.7 1.9-3.7 24.1-9.3 46.1-15.1 59.7-40.1 113.2-71 151.5-24.3 30.2-54.6 51-82.3 56.6-12.1 2.4-36.4 1.5-51-1.9-61.1-14.5-104-61.2-127.4-138.8-5.7-19-13.3-60.3-12.4-67.5.3-2.4 2.2-3.3 30.3-13.5 16.5-6 30-10.9 30.1-10.9.1 0 .4 8.9.7 19.7.3 10.9 1.3 24.1 2.1 29.3 9.2 57.2 36.3 89 84.8 99.7 6.7 1.4 12.6 1.8 30.8 1.8 24.4-.1 33.4-1.2 49.1-6.1 56.5-17.6 80.1-70.7 70.3-157.4-.7-6.9-1.4-13.2-1.4-14 0-1.4 3-1.2 24.3 1.2 13.3 1.5 25.9 2.7 28 2.7zM827 130.7c-15.5 1.1-35.2 5.4-53.5 11.5-20.9 7-60.4 25.6-59 27.8 1.9 3.1 19.7 11.1 31 14l7 1.8 11-5.5c10-5.1 32.4-13.3 36.1-13.3.8 0-1.6 2.6-5.3 5.9-3.8 3.2-12.2 11.4-18.8 18.2-19 19.6-31.8 38-43.7 62.5-19.8 41.1-28.7 89.3-27.6 149.1l.5 24.3h-46.4l-4.5 3c-2.6 1.7-5.8 4.6-7.2 6.5-3.5 4.5-7.6 13.4-7.6 16.3v2.4l35.2-.4 35.2-.3 1.4 5c22.9 85 40.9 133 64.1 171.4 37.9 62.5 87 95.3 160.1 106.6 16.5 2.6 57.2 3.2 73.6 1.1 53.7-6.9 91.1-28.6 115.1-67.1 16.3-26 27.3-68.4 27.3-104.7 0-6.8.4-10.8 1-10.8 3.3 0 41.7 27.9 58.5 42.4 10 8.7 10 8.7 14.8 8.3 6.1-.5 10.1-3.4 10.5-7.4.3-2.5-.6-3.9-5.5-8.6-12.5-12.1-37.3-30.6-60.9-45.3-7.7-4.8-14.6-9.3-15.5-10.1-1.3-1-1.7-4.4-2.3-15.6-2.2-45.8-11-96.1-23.8-135.7-11.6-36-25.2-64.6-44.3-93.5-12.9-19.4-24.4-33.5-41.5-50.5-16.2-16.3-30.4-28-49.3-40.7-7.1-4.8-16-11.5-19.9-15-44.2-39.6-93-57.6-145.8-53.6zm62.2 24.2c4.3 1.1 9 2.7 10.5 3.6l2.8 1.6-3.5-.5c-18.2-2.7-35.5-3.1-42.7-1-2.1.6-2.3.3-2.3-3.1v-3.8l13.8.6c8.4.4 16.7 1.4 21.4 2.6zM867 170.1c43.3 4.6 81.8 20 119 47.7 13.9 10.4 41.1 37.2 53.4 52.7 31.7 40 63.7 99.3 76.6 142.3 8.7 29.1 12 50.6 12.7 83.4l.6 24.7-17.8-9.1c-101.1-51.7-229.1-82.6-354.2-85.5l-28.1-.6-.6-2.6c-1.4-5.8-1.9-68.9-.7-85.6 6.8-97.8 36.2-152.4 89.7-166 12.4-3.2 28.4-3.6 49.4-1.4zm-96.4 301.1c0 9 .6 20.3 1.3 25.3 6.9 48.8 32.3 87 70.8 106.7 21.6 11.1 46.6 15.7 68.1 12.4 11.7-1.8 27.7-6.8 37.9-12 25.6-12.9 50.1-37 59.8-59.1 6.3-14.2 8.7-31.1 6.3-44.8-.8-4.2-1.1-7.7-.8-7.7 1.8 0 37.4 12.4 50 17.5 23.4 9.3 58.5 26.9 63.8 31.9 1 1 .9 3.4-.3 12.6-6.3 44.6-27.5 87.8-57.1 116-33 31.5-73.1 44.4-119.1 38.5-48.3-6.3-90.6-27.8-127.8-65-42.1-42.1-73.4-102.8-88.4-171.3-1.7-7.7-3.1-14.8-3.1-15.6 0-1.4 2.4-1.6 19.3-1.6h19.3v16.2zm93.9-9.2c12.7 1.6 26.9 3.5 31.6 4.1l8.7 1.2.6 6.6c2.4 25.7-13.1 39.4-38.6 34-18.7-4-27.8-16.8-27.8-39 0-7.4.3-9.9 1.3-9.9.7 0 11.6 1.3 24.2 3zm75 10.9c4.4 1 9.2 2.2 10.7 2.5 2.5.6 2.6.8 1.7 3.5-.9 2.6-1.5 2.9-6.8 3.3-7 .5-11.3 3.2-13.7 8.8-1 2.2-2 4-2.3 4-.3 0-1.9-1-3.4-2.3l-2.8-2.2 2.1-9c2.6-11.6 2.6-11.4 4.7-10.9 1 .2 5.4 1.2 9.8 2.3zm55 29.9c-.5.6-9.5-2.1-9.5-2.8 0-.5.9-3 2.1-5.7l2.1-4.8 2.7 6.5c1.6 3.6 2.7 6.6 2.6 6.8z"/><path d="M7.4 494.2c-1.2.5-3.4 3.2-4.9 5.9l-2.7 5 2.7 12.7c21.6 103.9 65.5 206.5 127.2 297C222.9 951.5 354.5 1058 492 1108c88.2 32.1 174.4 40.3 253.5 24 139.4-28.7 273.6-128.3 381.2-283 57.8-83 107.6-183 145.9-292.8 7.7-22 8.5-26 5.8-28.3-2.6-2.2-4.3 0-8.3 10.6-2.1 5.5-7.4 18.8-11.8 29.5-60.5 146.7-126.3 254.1-204.7 333.9-49.5 50.2-94.7 83.3-152.1 111.2-53.1 25.7-107.7 41.4-169 48.3-47.1 5.4-107.8 4.6-159-2-258.9-33.3-451.9-203.4-532-468.9-7-23.2-14.9-54.1-19.1-74-2.7-13.2-5.2-18.8-9.6-21.9-2.6-1.8-2.6-1.8-5.4-.4z"/><path d="M241 748.2c0 .4 2 5.5 4.5 11.4 10.9 26.1 24.8 46.1 41 59 27.7 22.3 60 25.9 103.3 11.7l11.6-3.8-20.5-.6c-22.3-.7-33.1-2.4-50.1-8-31.3-10.2-61.9-33.3-84.8-63.9-4.4-5.9-5-6.6-5-5.8zM1057.2 761.5c-18.2 9.3-39.2 16.6-58.2 20.1-4.7.8-15.9 1.8-25 2-9.1.3-18.4 1-20.8 1.6-4.8 1.2-7 3.9-4.8 5.7 4.7 3.9 38.1 4.7 54.3 1.2 18.1-3.8 31.1-9.3 46.9-20 7.4-5 22.1-17.2 20.4-16.9-.3 0-6 2.9-12.8 6.3zM845.5 1139.7c-8.7 5.2-32.2 16.4-45.5 21.6-62.7 24.4-130 30.3-186.1 16.2-16.8-4.3-28-8.5-45.6-17.1-9.6-4.7-18.5-8.4-20.1-8.4-3.9 0-8.2 3.5-8.2 6.6 0 4.9 2.9 9.1 12.5 18.3 29.7 28.3 59.6 45.4 91.8 52.3 14.9 3.2 41.6 3.2 57.6 0 39.6-8 79.4-29.6 122.4-66.6 11.2-9.6 29.2-26.6 28-26.6-.4.1-3.5 1.7-6.8 3.7z"/></svg>